HIERARCHY
ROOT Pelvis
{
	OFFSET 0.000000 0.941512 0.000000
	CHANNELS 6 Xposition Yposition Zposition Zrotation Yrotation Xrotation 
	JOINT Pelvis_L_Hip
	{
		OFFSET 0.000000 0.000000 0.000000
		CHANNELS 3 Zrotation Yrotation Xrotation
		JOINT L_Hip
		{
			OFFSET 0.062321 -0.080322 -0.016990
			CHANNELS 3 Zrotation Yrotation Xrotation
			JOINT L_Knee
			{
				OFFSET 0.093051 -0.381305 -0.029784
				CHANNELS 3 Zrotation Yrotation Xrotation
				JOINT L_Ankle
				{
					OFFSET -0.010371 -0.431000 -0.033614
					CHANNELS 3 Zrotation Yrotation Xrotation
					End Site #name: L_Foot
					{
						OFFSET 0.069299 -0.038670 0.119418
					}
				}
			}
		}
	}
	JOINT Pelvis_R_Hip
	{
		OFFSET 0.000000 0.000000 0.000000
		CHANNELS 3 Zrotation Yrotation Xrotation
		JOINT R_Hip
		{
			OFFSET -0.055334 -0.094904 -0.002373
			CHANNELS 3 Zrotation Yrotation Xrotation
			JOINT R_Knee
			{
				OFFSET -0.064207 -0.384370 -0.019592
				CHANNELS 3 Zrotation Yrotation Xrotation
				JOINT R_Ankle
				{
					OFFSET 0.025418 -0.419734 -0.065953
					CHANNELS 3 Zrotation Yrotation Xrotation
					End Site #name: R_Foot
					{
						OFFSET -0.057233 -0.039888 0.132134
					}
				}
			}
		}
	}
	JOINT Pelvis_Spine1
	{
		OFFSET 0.000000 0.000000 0.000000
		CHANNELS 3 Zrotation Yrotation Xrotation
		JOINT Spine1
		{
			OFFSET -0.005562 0.124093 -0.043360
			CHANNELS 3 Zrotation Yrotation Xrotation
			JOINT Spine2
			{
				OFFSET 0.012244 0.139499 0.029894
				CHANNELS 3 Zrotation Yrotation Xrotation
				JOINT Spine3
				{
					OFFSET -0.002556 0.056561 0.009225
					CHANNELS 3 Zrotation Yrotation Xrotation
					JOINT Spine3_Neck
					{
						OFFSET 0.000000 0.000000 0.000000
						CHANNELS 3 Zrotation Yrotation Xrotation
						JOINT Neck
						{
							OFFSET -0.005205 0.217920 -0.024551
							CHANNELS 3 Zrotation Yrotation Xrotation
							End Site #name: Head
							{
								OFFSET 0.002365 0.091850 0.046637
							}
						}
					}
					JOINT Spine3_L_Collar
					{
						OFFSET 0.000000 0.000000 0.000000
						CHANNELS 3 Zrotation Yrotation Xrotation
						JOINT L_Collar
						{
							OFFSET 0.072225 0.116603 -0.009480
							CHANNELS 3 Zrotation Yrotation Xrotation
							JOINT L_Shoulder
							{
								OFFSET 0.115937 -0.058643 -0.021018
								CHANNELS 3 Zrotation Yrotation Xrotation
								JOINT L_Elbow
								{
									OFFSET 0.021994 -0.254722 -0.024492
									CHANNELS 3 Zrotation Yrotation Xrotation
									End Site #name: L_Wrist
									{
										OFFSET 0.048810 -0.240214 0.103329
									}
								}
							}
						}
					}
					JOINT Spine3_R_Collar
					{
						OFFSET 0.000000 0.000000 0.000000
						CHANNELS 3 Zrotation Yrotation Xrotation
						JOINT R_Collar
						{
							OFFSET -0.073372 0.120704 -0.024611
							CHANNELS 3 Zrotation Yrotation Xrotation
							JOINT R_Shoulder
							{
								OFFSET -0.108089 -0.054969 -0.020504
								CHANNELS 3 Zrotation Yrotation Xrotation
								JOINT R_Elbow
								{
									OFFSET -0.033684 -0.260739 0.009889
									CHANNELS 3 Zrotation Yrotation Xrotation
									End Site #name: R_Wrist
									{
										OFFSET -0.067980 -0.232763 0.118463
									}
								}
							}
						}
					}
				}
			}
		}
	}
}
MOTION
Frames: 7
Frame Time: 0.041667
-0.301377 0.724638 0.926300 -4.341474 16.552307 -0.215669 0.000000 0.000000 0.000000 38.943980 -2.292298 -40.256589 -45.159565 18.346904 43.021447 14.615028 27.240599 -11.525513 0.000000 0.000000 0.000000 -7.402403 2.591103 -50.346821 -1.246031 1.478657 75.199154 -8.278131 -0.624291 -20.223946 0.000000 0.000000 0.000000 -14.561033 1.847709 35.256208 1.790404 -0.557644 -6.913636 9.643807 14.090134 -0.082569 0.000000 0.000000 0.000000 -6.414516 3.064207 -12.424818 0.000000 0.000000 0.000000 14.869045 -8.436374 -1.196015 -11.970797 -1.374770 -11.484412 -7.281672 -12.496868 -28.176365 0.000000 0.000000 0.000000 -29.293889 28.460233 -23.598398 10.780478 -2.918828 14.388208 8.847393 16.359658 -25.944941 
-0.303663 0.728141 0.926640 -4.404400 16.872675 0.126544 0.000000 0.000000 0.000000 39.312859 -2.294614 -39.948173 -45.392763 17.832996 41.535753 14.368224 27.060597 -10.929972 0.000000 0.000000 0.000000 -7.298583 2.584227 -50.291487 -1.029041 1.104714 74.480858 -8.249228 -1.043426 -20.042177 0.000000 0.000000 0.000000 -14.967650 2.026107 34.857959 2.126912 -0.592335 -6.804124 9.976393 14.431406 0.141668 0.000000 0.000000 0.000000 -6.676180 3.141384 -13.223624 0.000000 0.000000 0.000000 15.637784 -8.402388 -0.925918 -13.024775 -1.651336 -12.742867 -8.293771 -12.447378 -26.073713 0.000000 0.000000 0.000000 -30.017954 28.236887 -23.719317 12.041503 -2.909287 13.857052 8.354899 15.944079 -25.959025 
-0.305697 0.731376 0.926695 -4.549079 17.055477 0.450104 0.000000 0.000000 0.000000 39.647653 -2.265566 -39.913199 -45.413050 17.518783 40.703192 14.071018 26.843934 -10.265665 0.000000 0.000000 0.000000 -7.225894 2.590258 -50.368161 -0.731903 0.713492 73.905736 -8.168459 -1.369545 -19.743086 0.000000 0.000000 0.000000 -15.053643 2.037672 34.902061 2.289681 -0.632557 -7.366143 10.148995 14.502522 0.388452 0.000000 0.000000 0.000000 -6.793678 3.185671 -13.221962 0.000000 0.000000 0.000000 15.941961 -8.771985 -1.107361 -13.332746 -1.572238 -12.356766 -8.704799 -12.651041 -25.805177 0.000000 0.000000 0.000000 -31.073939 28.439000 -24.318335 12.690749 -2.910122 13.659037 8.347688 15.786701 -25.634643 
-0.307464 0.729801 0.926577 -4.586863 17.031058 0.900834 0.000000 0.000000 0.000000 40.008612 -2.163962 -40.326679 -45.569093 17.584914 40.491927 14.143379 27.090561 -10.238875 0.000000 0.000000 0.000000 -7.411155 2.521946 -51.210402 -0.284499 0.318558 74.284387 -8.210298 -1.553050 -19.744598 0.000000 0.000000 0.000000 -15.044091 2.041073 34.942340 2.452050 -0.675637 -8.054784 10.050673 14.546674 0.572757 0.000000 0.000000 0.000000 -6.939086 3.228889 -13.494850 0.000000 0.000000 0.000000 16.670519 -8.739251 -0.887608 -13.251648 -1.581619 -12.538048 -10.062073 -13.443770 -25.221456 0.000000 0.000000 0.000000 -31.948578 28.302488 -24.496740 13.147448 -2.913934 13.563190 9.421596 16.491647 -25.136179 
-0.308224 0.725051 0.926673 -4.351730 16.849419 0.731849 0.000000 0.000000 0.000000 39.968187 -2.117969 -40.656448 -45.706055 18.080295 41.475328 14.283108 27.133007 -10.657948 0.000000 0.000000 0.000000 -7.931291 2.315060 -51.625142 0.147431 -0.001713 75.246806 -8.356065 -1.343102 -20.132141 0.000000 0.000000 0.000000 -15.165729 2.076278 36.066317 2.452265 -0.702453 -8.854400 9.930895 14.622165 0.789328 0.000000 0.000000 0.000000 -7.502086 3.389231 -14.134004 0.000000 0.000000 0.000000 17.264455 -8.944031 -0.907609 -12.553468 -1.586491 -12.793423 -11.047406 -14.215834 -25.278439 0.000000 0.000000 0.000000 -33.159216 28.301644 -24.884756 13.369867 -2.961611 13.753981 10.922032 17.590268 -24.677688 
-0.309893 0.716952 0.927342 -4.293278 16.326991 0.562100 0.000000 0.000000 0.000000 40.604995 -1.857015 -41.004654 -46.323008 18.938261 42.472370 14.618310 27.443533 -11.435372 0.000000 0.000000 0.000000 -7.841943 2.450046 -52.647758 0.213985 0.200857 77.069605 -8.590259 -1.381606 -20.600685 0.000000 0.000000 0.000000 -15.288408 2.205838 36.663172 1.941862 -0.630171 -8.379475 10.082093 14.399668 0.263471 0.000000 0.000000 0.000000 -7.303664 3.282217 -14.820478 0.000000 0.000000 0.000000 17.346908 -9.112492 -1.085784 -11.670818 -1.417035 -12.078292 -11.224966 -15.198898 -27.217359 0.000000 0.000000 0.000000 -33.623072 28.633270 -25.239798 12.693099 -2.868538 13.683403 12.251425 18.581302 -24.325890 
-0.306763 0.710924 0.926463 -3.967650 16.782516 0.408091 0.000000 0.000000 0.000000 39.884600 -2.036684 -42.430226 -45.801660 19.615702 44.923318 14.762872 27.119224 -12.258308 0.000000 0.000000 0.000000 -8.961512 1.824861 -52.750552 0.647192 -0.355533 77.917268 -8.767319 -1.394487 -21.002920 0.000000 0.000000 0.000000 -14.818208 1.798454 37.926254 1.907017 -0.629703 -8.446456 9.369432 13.802459 -0.308259 0.000000 0.000000 0.000000 -6.465168 3.013654 -14.462708 0.000000 0.000000 0.000000 16.853421 -9.467572 -1.539547 -11.205942 -1.171933 -10.788214 -11.141161 -16.058055 -29.264532 0.000000 0.000000 0.000000 -33.494721 28.557977 -24.973679 11.995752 -2.775635 13.575999 12.916005 19.607246 -25.056765 
